<svg xmlns="http://www.w3.org/2000/svg" viewBox="0 0 325.16 264"><defs><style>.cls-1{fill:#ffba00;}.cls-2{fill:#fcdc2b;}.cls-3{opacity:0.06;}.cls-3,.cls-4{isolation:isolate;}.cls-5{fill:#fff;}</style></defs><title>QuackCryption</title><g id="QuackCryption" data-name="QuackCryption"><g id="Duck"><path class="cls-1" d="M77.43,54.62h.06A32.92,32.92,0,0,1,56.37,77.71,24,24,0,0,1,68.08,95.46l-55.47,2.7c-2.71.13-6.16-.8-6.56-4a8.48,8.48,0,0,1,1.12-4.69,27.36,27.36,0,0,1,11.69-12c.86-.45,1.91-1.26,1.53-2.15a2,2,0,0,0-1-.85A36.88,36.88,0,0,1,.4,50c-.59-2.64-.76-5.74,1.11-7.69,2.15-2.25,5.79-1.8,8.84-1.18Z"/><path class="cls-2" d="M325.16,162.21c0,23.3-7.4,46.56-23.17,63.49-16,17.16-38.77,26.44-61.56,32-30.59,7.43-63,9-93.45.84-23.78-6.37-46.21-18.94-63-37.05-8.56-9.22-14.57-18.5-16.55-31.11a63.93,63.93,0,0,1,4.76-35.74A59,59,0,0,1,80.6,141c1.1-1.33,2.32-2.75,2.38-4.48.11-3-3.2-4.88-6-6.19-23.51-11.22-39.45-36.86-39.08-63s17-51.27,40.92-61.8S132.53-.28,152.06,17s27.7,46.38,20.09,71.34c-.53,1.73-1.12,3.62-.45,5.3,1.23,3.08,5.47,3.21,8.77,2.9a171.23,171.23,0,0,1,78,11.09c7.55,3,15.88,6.51,23.45,3.6,7.3-2.8,11.16-10.6,14.36-17.73,14.14,10.5,22.32,27.5,26.2,44.66A110.06,110.06,0,0,1,325.16,162.21Z"/><path class="cls-3" d="M190.78,233.47c-38.2,3-74.5-1.34-106.09-11.25,16.73,17.69,38.84,30,62.28,36.28,30.41,8.14,62.86,6.6,93.45-.84,22.8-5.54,45.57-14.82,61.56-32A85.27,85.27,0,0,0,321.47,190C287.18,213.46,241.63,229.54,190.78,233.47Z"/></g><g class="cls-4"><path class="cls-5" d="M221,149.55V135.4a25.1,25.1,0,1,0-50.21,0v14.16A11,11,0,0,0,161,160.47V208a11,11,0,0,0,11,11h47.9a11,11,0,0,0,11-11V160.47A11,11,0,0,0,221,149.55ZM180.82,135.4a15.1,15.1,0,1,1,30.21,0v14.09H180.82Zm5.08,62.89,3.9-15,1.14-4.38a8.75,8.75,0,0,1-3.8-7.24c0-.15,0-.29,0-.44a8.79,8.79,0,0,1,17.56,0h0c0,.15,0,.29,0,.44a8.76,8.76,0,0,1-3.81,7.24l1.14,4.38,3.9,15Z"/></g></g></svg>